<svg xmlns="http://www.w3.org/2000/svg" viewBox="0 0 28 28" >
 <g>
  <path d="M9.58398 9.11914C12.0723 9.11914 14.1504 7.05469 14.1504 4.56641C14.1504 2.07812 12.0723 0 9.58398 0C7.0957 0 5.01758 2.07812 5.01758 4.56641C5.01758 7.05469 7.0957 9.11914 9.58398 9.11914ZM9.58398 6.91797C8.29883 6.91797 7.21875 5.83789 7.21875 4.56641C7.21875 3.28125 8.29883 2.20117 9.58398 2.20117C10.8691 2.20117 11.9492 3.28125 11.9492 4.56641C11.9492 5.83789 10.8691 6.91797 9.58398 6.91797ZM19.6055 9.11914C22.0938 9.11914 24.1719 7.05469 24.1719 4.56641C24.1719 2.07812 22.0938 0 19.6055 0C17.1172 0 15.0391 2.07812 15.0391 4.56641C15.0391 7.05469 17.1172 9.11914 19.6055 9.11914ZM19.6055 6.91797C18.3203 6.91797 17.2402 5.83789 17.2402 4.56641C17.2402 3.28125 18.3203 2.20117 19.6055 2.20117C20.8906 2.20117 21.9707 3.28125 21.9707 4.56641C21.9707 5.83789 20.8906 6.91797 19.6055 6.91797ZM4.56641 18.1152C7.06836 18.1152 9.14648 16.0371 9.14648 13.5488C9.14648 11.0605 7.06836 8.98242 4.56641 8.98242C2.07812 8.98242 0 11.0605 0 13.5488C0 16.0371 2.07812 18.1152 4.56641 18.1152ZM4.56641 15.9141C3.28125 15.9141 2.20117 14.834 2.20117 13.5488C2.20117 12.2637 3.28125 11.1836 4.56641 11.1836C5.85156 11.1836 6.94531 12.2637 6.94531 13.5488C6.94531 14.834 5.85156 15.9141 4.56641 15.9141ZM24.623 18.1152C27.1113 18.1152 29.1895 16.0371 29.1895 13.5488C29.1895 11.0605 27.1113 8.98242 24.623 8.98242C22.1348 8.98242 20.043 11.0605 20.043 13.5488C20.043 16.0371 22.1348 18.1152 24.623 18.1152ZM24.623 15.9141C23.3379 15.9141 22.2441 14.834 22.2441 13.5488C22.2441 12.2637 23.3379 11.1836 24.623 11.1836C25.9082 11.1836 26.9883 12.2637 26.9883 13.5488C26.9883 14.834 25.9082 15.9141 24.623 15.9141ZM9.58398 27.0977C12.0723 27.0977 14.1504 25.0195 14.1504 22.5312C14.1504 20.0293 12.0723 17.9648 9.58398 17.9648C7.0957 17.9648 5.01758 20.0293 5.01758 22.5312C5.01758 25.0195 7.0957 27.0977 9.58398 27.0977ZM9.58398 24.8965C8.29883 24.8965 7.21875 23.8164 7.21875 22.5312C7.21875 21.2461 8.29883 20.166 9.58398 20.166C10.8691 20.166 11.9492 21.2461 11.9492 22.5312C11.9492 23.8164 10.8691 24.8965 9.58398 24.8965ZM19.6055 27.0977C22.0938 27.0977 24.1719 25.0195 24.1719 22.5312C24.1719 20.0293 22.0938 17.9648 19.6055 17.9648C17.1172 17.9648 15.0391 20.0293 15.0391 22.5312C15.0391 25.0195 17.1172 27.0977 19.6055 27.0977ZM19.6055 24.8965C18.3203 24.8965 17.2402 23.8164 17.2402 22.5312C17.2402 21.2461 18.3203 20.166 19.6055 20.166C20.8906 20.166 21.9707 21.2461 21.9707 22.5312C21.9707 23.8164 20.8906 24.8965 19.6055 24.8965Z"/>
 </g>
</svg>
