<svg xmlns="http://www.w3.org/2000/svg" viewBox="0 0 28 28" >
 <g>
  <path d="M13.9453 27.8906C21.5742 27.8906 27.8906 21.5605 27.8906 13.9453C27.8906 6.31641 21.5605 0 13.9316 0C6.31641 0 0 6.31641 0 13.9453C0 21.5605 6.33008 27.8906 13.9453 27.8906ZM13.9453 25.5664C7.49219 25.5664 2.33789 20.3984 2.33789 13.9453C2.33789 7.49219 7.47852 2.32422 13.9316 2.32422C20.3848 2.32422 25.5664 7.49219 25.5664 13.9453C25.5664 20.3984 20.3984 25.5664 13.9453 25.5664Z"/>
  <path d="M14 22.4082C17.9238 22.4082 20.5352 19.7422 20.5352 15.75C20.5352 9.0918 14.875 6.31641 10.9512 6.31641C10.2539 6.31641 9.81641 6.58984 9.81641 7.05469C9.81641 7.24609 9.89844 7.42383 10.0488 7.61523C10.9102 8.6543 11.8125 9.91211 11.8262 11.375C11.8262 11.7305 11.7852 12.0176 11.5527 12.4277L11.9219 12.3594C11.5801 11.2656 10.6914 10.4863 9.89844 10.4863C9.59766 10.4863 9.39258 10.7188 9.39258 11.0469C9.39258 11.2246 9.44727 11.6895 9.44727 12.0312C9.44727 13.6855 8.17578 14.6699 8.17578 17.3359C8.17578 20.3711 10.4863 22.4082 14 22.4082ZM14.1777 20.3164C12.7969 20.3164 11.8535 19.4688 11.8535 18.2109C11.8535 16.9121 12.7969 16.4473 12.9199 15.6133C12.9199 15.5312 12.9746 15.5176 13.0293 15.5723C13.3711 15.8594 13.5762 16.2422 13.7812 16.666C14.1777 16.1328 14.3555 15.0117 14.2324 13.8086C14.2188 13.7129 14.2598 13.6992 14.3281 13.7129C15.9688 14.4785 16.7891 16.1055 16.7891 17.541C16.7891 19.0039 15.9414 20.3164 14.1777 20.3164Z"/>
 </g>
</svg>
