<svg xmlns="http://www.w3.org/2000/svg" viewBox="0 0 30 28.3" >
 <g>
  <path d="M0 24.2842C0 26.9077 1.30518 28.2656 3.98145 28.2656L25.8398 28.2656C28.6084 28.2656 29.9795 26.9077 29.9795 24.1919L29.9795 4.08691C29.9795 1.37109 28.6084 0 25.8398 0L9.95361 0C7.19824 0 5.81396 1.37109 5.81396 4.08691L5.81396 10.3755L2.66309 10.3755C0.98877 10.3755 0 11.2852 0 12.854ZM2.12256 24.2842L2.12256 13.2627C2.12256 12.7749 2.4126 12.498 2.90039 12.498L5.81396 12.498L5.81396 24.2842C5.81396 25.3784 5.00977 26.1431 3.98145 26.1431C2.93994 26.1431 2.12256 25.3389 2.12256 24.2842ZM7.48828 26.1431C7.77832 25.5762 7.93652 24.917 7.93652 24.1523L7.93652 4.20557C7.93652 2.83447 8.6748 2.12256 9.99316 2.12256L25.8003 2.12256C27.1187 2.12256 27.8569 2.83447 27.8569 4.20557L27.8569 24.0732C27.8569 25.4443 27.1187 26.1431 25.8003 26.1431ZM11.3643 7.85742L24.4556 7.85742C24.917 7.85742 25.2729 7.48828 25.2729 7.02686C25.2729 6.57861 24.917 6.23584 24.4556 6.23584L11.3643 6.23584C10.8896 6.23584 10.5337 6.57861 10.5337 7.02686C10.5337 7.48828 10.8896 7.85742 11.3643 7.85742ZM11.3643 12.498L24.4556 12.498C24.917 12.498 25.2729 12.1421 25.2729 11.6938C25.2729 11.2324 24.917 10.8765 24.4556 10.8765L11.3643 10.8765C10.8896 10.8765 10.5337 11.2324 10.5337 11.6938C10.5337 12.1421 10.8896 12.498 11.3643 12.498ZM12.1421 21.8979L15.5566 21.8979C16.5586 21.8979 17.165 21.2915 17.165 20.2896L17.165 17.1519C17.165 16.1367 16.5586 15.5303 15.5566 15.5303L12.1421 15.5303C11.127 15.5303 10.5205 16.1367 10.5205 17.1519L10.5205 20.2896C10.5205 21.2915 11.127 21.8979 12.1421 21.8979ZM19.5381 17.1519L24.4424 17.1519C24.917 17.1519 25.2598 16.8091 25.2598 16.3608C25.2598 15.8862 24.917 15.5303 24.4424 15.5303L19.5381 15.5303C19.0635 15.5303 18.7207 15.8862 18.7207 16.3608C18.7207 16.8091 19.0635 17.1519 19.5381 17.1519ZM19.5381 21.8979L24.4424 21.8979C24.917 21.8979 25.2598 21.5552 25.2598 21.1069C25.2598 20.6455 24.917 20.2764 24.4424 20.2764L19.5381 20.2764C19.0635 20.2764 18.7207 20.6455 18.7207 21.1069C18.7207 21.5552 19.0635 21.8979 19.5381 21.8979Z"/>
 </g>
</svg>
