<svg xmlns="http://www.w3.org/2000/svg" viewBox="0 0 28 28" >
 <g>
  <path d="M13.9453 27.8906C21.5742 27.8906 27.8906 21.5605 27.8906 13.9453C27.8906 6.31641 21.5605 0 13.9316 0C6.31641 0 0 6.31641 0 13.9453C0 21.5605 6.33008 27.8906 13.9453 27.8906ZM13.9453 25.5664C7.49219 25.5664 2.33789 20.3984 2.33789 13.9453C2.33789 7.49219 7.47852 2.32422 13.9316 2.32422C20.3848 2.32422 25.5664 7.49219 25.5664 13.9453C25.5664 20.3984 20.3984 25.5664 13.9453 25.5664Z" />
  <path d="M13.6582 16.7754C14.3418 16.7754 14.7656 16.3379 14.7656 15.8047C14.7656 15.75 14.7656 15.6816 14.7656 15.6406C14.7656 14.875 15.2031 14.3828 16.1602 13.7539C17.4863 12.8789 18.4297 12.0859 18.4297 10.4453C18.4297 8.17578 16.4062 6.94531 14.082 6.94531C11.7305 6.94531 10.1855 8.06641 9.81641 9.32422C9.74805 9.54297 9.70703 9.76172 9.70703 9.99414C9.70703 10.6094 10.1855 10.9375 10.6367 10.9375C11.1016 10.9375 11.4023 10.7188 11.6484 10.3906L11.8945 10.0625C12.373 9.26953 13.084 8.80469 14 8.80469C15.2441 8.80469 16.0508 9.51562 16.0508 10.5547C16.0508 11.4844 15.4766 11.9355 14.2871 12.7695C13.3027 13.4531 12.5645 14.1777 12.5645 15.5176C12.5645 15.5723 12.5645 15.6406 12.5645 15.6953C12.5645 16.4062 12.9609 16.7754 13.6582 16.7754ZM13.6309 20.8496C14.4238 20.8496 15.1074 20.2207 15.1074 19.4277C15.1074 18.6348 14.4375 18.0059 13.6309 18.0059C12.8242 18.0059 12.1543 18.6484 12.1543 19.4277C12.1543 20.207 12.8379 20.8496 13.6309 20.8496Z"/>
 </g>
</svg>
