<svg xmlns="http://www.w3.org/2000/svg" viewBox="0 0 19.622 35">
	<path d="M1775.7,720.551h0Z" transform="translate(-1758.625 -685.551)" />
	<path d="M1716.753,529.2H1713.4v-1.269a4.772,4.772,0,1,0-6.29-3.649.906.906,0,0,0,1.159.705.926.926,0,0,0,.622-1.047,2.961,2.961,0,1,1,3.446,2.406.906.906,0,0,0-.746.891v2.869a.905.905,0,0,0,.905.905h4.254c2,0,2.923.942,2.923,2.965v11.888a.9.9,0,1,0,1.809,0V533.976C1721.487,530.941,1719.763,529.2,1716.753,529.2Z" transform="translate(-1701.866 -518.659)"/>
	<path d="M1695.925,600.281a.9.9,0,0,0-.9.9h0v-.005c0,.926-.514.926-.734.926-.3,0-.536-.145-1.583-1.164l-4.922-4.862a1.044,1.044,0,0,0-.708-.324,1.065,1.065,0,0,0-.8.309l-4.93,4.875c-1.043,1.017-1.288,1.171-1.59,1.171-.22,0-.734,0-.734-.926V584.237c0-2.023.929-2.965,2.924-2.965a.9.9,0,0,0,.857-.6.908.908,0,0,0-.857-1.206c-3.009,0-4.734,1.741-4.734,4.777v16.948a2.5,2.5,0,0,0,2.547,2.735c1.074,0,1.717-.578,2.856-1.69l4.408-4.357h0l4.416,4.365c1.134,1.1,1.776,1.681,2.848,1.682,1.889,0,2.545-1.271,2.545-2.735h0A.9.9,0,0,0,1695.925,600.281Z" transform="translate(-1677.207 -568.92)" />
</svg>
