<svg xmlns="http://www.w3.org/2000/svg" xmlns:xlink="http://www.w3.org/1999/xlink" viewBox="0 0 8.4 8.4">
<path d="M6.1,8.4c-1,0-1.9-0.8-1.9-1.9c0-1,0.8-1.9,1.9-1.9c1,0,1.9,0.8,1.9,1.9C8,7.5,7.1,8.4,6.1,8.4z M5.3,6.4
	C5.1,6.4,5,6.5,5,6.7c0,0.1,0,0.2,0.1,0.2l0.5,0.6c0.1,0.1,0.2,0.1,0.3,0.2c0.1,0,0.2-0.1,0.3-0.2l1-1.5c0-0.1,0.1-0.1,0.1-0.2
	c0-0.2-0.1-0.3-0.3-0.3c-0.1,0-0.2,0.1-0.3,0.2L5.9,6.9L5.5,6.5C5.5,6.4,5.4,6.4,5.3,6.4L5.3,6.4z"/>
<path d="M0.3,5.7c0,1.3,0.8,2.3,1.8,2.3h1.2C3.9,8.2,4.5,8.3,5,8.3h0.5c0.4,0,0.8,0,1.1-0.1c0.4-0.1,0.8-0.4,0.8-0.9
	c0-0.1,0-0.2-0.1-0.3c0.3-0.2,0.4-0.5,0.4-0.8c0-0.2,0-0.3-0.1-0.4C7.9,5.7,8,5.4,8,5.2C8,5,8,4.8,7.9,4.7C8,4.5,8.1,4.3,8.1,4.1
	c0-0.5-0.4-0.9-0.9-0.9c0,0,0,0,0,0H5.8C5.6,3.1,5.5,3.1,5.5,3c0-0.4,0.6-1.4,0.6-2.1C6.2,0.4,5.9,0,5.4,0c0,0,0,0-0.1,0
	C5,0,4.8,0.2,4.6,0.6C4,1.6,3.4,2.5,2.7,3.4H2C1.1,3.4,0.3,4.4,0.3,5.7z M2.4,5.7c0-0.7,0.2-1.5,0.7-2C3.8,2.7,4.4,1.8,5,0.8
	c0.1-0.3,0.2-0.4,0.4-0.4c0.2,0,0.3,0.1,0.3,0.4c0,0.6-0.6,1.5-0.6,2.1c0,0.4,0.3,0.7,0.7,0.7c0,0,0,0,0.1,0h1.3
	c0.3,0,0.5,0.2,0.5,0.5c0,0,0,0,0,0c0,0.2-0.1,0.3-0.2,0.4c-0.1,0-0.1,0.1,0,0.2c0,0,0,0,0,0C7.5,4.9,7.6,5,7.6,5.2
	c0,0.2-0.1,0.4-0.2,0.5C7.2,5.7,7.2,5.8,7.3,5.9c0,0,0,0,0,0C7.3,6,7.4,6.2,7.4,6.3c0,0.2-0.1,0.4-0.4,0.5C6.9,6.8,6.9,6.9,6.9,7
	c0,0,0,0,0,0C7,7.1,7,7.2,7,7.4c0,0.2-0.1,0.4-0.4,0.4c-0.3,0.1-0.7,0.1-1,0.1H5.1C3.5,7.9,2.4,7,2.4,5.7z M0.8,5.7
	c0-1,0.6-1.8,1.2-1.8h0.4C2,4.4,1.9,5,1.9,5.6c0,0.7,0.3,1.4,0.8,1.8H2.1C1.4,7.5,0.8,6.7,0.8,5.7z"/>
</svg>
