<svg xmlns="http://www.w3.org/2000/svg" xmlns:xlink="http://www.w3.org/1999/xlink" viewBox="0 0 26.9604 29.8608">
 <g>
  <path d="M13.4868 29.8608C13.9614 29.8608 14.3701 29.6367 14.9238 29.3071L26.2485 22.623C26.7231 22.3462 26.9604 21.8848 26.9604 21.4761C26.9604 20.9355 26.5649 20.5005 26.1958 20.3159L13.9878 27.3823C13.79 27.4878 13.6318 27.5669 13.4868 27.5669C13.3286 27.5669 13.1704 27.4878 12.9727 27.3823L0.764648 20.3159C0.395508 20.5005 0 20.9355 0 21.4761C0 21.8848 0.237305 22.3462 0.725098 22.623L12.0366 29.3071C12.6035 29.6367 12.999 29.8608 13.4868 29.8608Z" />
  <path d="M13.4868 23.7964C13.9614 23.7964 14.3701 23.5723 14.9238 23.2427L26.2485 16.5586C26.7363 16.2554 26.9604 15.8203 26.9604 15.4116C26.9604 14.8711 26.5649 14.4229 26.1958 14.2515L13.9878 21.3047C13.79 21.4102 13.6318 21.4893 13.4868 21.4893C13.3286 21.4893 13.1704 21.4102 12.9727 21.3047L0.764648 14.2515C0.395508 14.4229 0 14.8711 0 15.4116C0 15.8203 0.237305 16.2686 0.725098 16.5586L12.0366 23.2427C12.6035 23.5723 12.999 23.7964 13.4868 23.7964Z" />
  <path d="M13.4868 17.2969C14.0142 17.2969 14.5283 17.1255 15.1611 16.7563L25.4707 10.771C26.5386 10.1514 26.9473 9.66357 26.9473 8.93848C26.9473 8.22656 26.5386 7.73877 25.4707 7.11914L15.1611 1.13379C14.5283 0.764648 14.0142 0.593262 13.4868 0.593262C12.9463 0.593262 12.4453 0.764648 11.7993 1.13379L1.48975 7.11914C0.421875 7.73877 0.0131836 8.22656 0.0131836 8.93848C0.0131836 9.66357 0.421875 10.1514 1.48975 10.771L11.7993 16.7563C12.4453 17.1255 12.9463 17.2969 13.4868 17.2969ZM13.4868 15.0029C13.2891 15.0029 13.1177 14.937 12.8936 14.8184L2.86084 9.07031C2.80811 9.04395 2.76855 9.00439 2.76855 8.93848C2.76855 8.88574 2.80811 8.84619 2.86084 8.81982L12.8936 3.07178C13.1177 2.95312 13.2891 2.88721 13.4868 2.88721C13.6714 2.88721 13.8428 2.95312 14.0669 3.07178L24.0996 8.81982C24.1655 8.84619 24.1919 8.88574 24.1919 8.93848C24.1919 9.00439 24.1655 9.04395 24.0996 9.07031L14.0669 14.8184C13.8428 14.937 13.6714 15.0029 13.4868 15.0029Z" />
 </g>
</svg>
