<svg xmlns="http://www.w3.org/2000/svg" xmlns:xlink="http://www.w3.org/1999/xlink" viewBox="0 0 90.7 90.7" >
	<g>
		<path d="M10.9,78.8c0,0.1,13.8,0.4,13.7,0.4c0.9,0,1.8-0.1,2.6-0.4c0.1,0,0.2,0,0.2-0.1c4.3-1.2,7.7-4.6,8.9-8.9h19.4
			c1.7,6.5,8.3,10.5,14.8,8.9c4.3-1.2,7.7-4.6,8.9-8.9h6.8c1.6,0.1,3-1.1,3.1-2.7c0-0.1,0-0.2,0-0.3V45.1c0-0.4-0.1-0.9-0.3-1.2
			L80,22.3c-0.4-1.2-1.5-1.9-2.8-1.9h-9.3v-6.2c0.1-1.6-1.1-3-2.7-3.1c-0.1,0-0.2,0-0.3,0L0.6,11.3V17l61.2,0.3v17.5h6.2v-8.2H75
			l6.5,15.4H67.9v0h-6.2v14.2c-2.8,1.6-4.9,4.3-5.9,7.4H36.5c-1.7-6-7.5-9.8-13.5-10c-2.8-0.1-10.8-1.2-10.8-1.2s5,4.6,9.4,9
			c0.9-0.6,2-0.9,3.2-0.9c3.4,0,6.2,2.8,6.2,6.2c0,3.4-2.8,6.2-6.2,6.2c-3.4,0-6.2-2.8-6.2-6.2c0-0.1,0-0.2,0-0.3 M67.9,72.9
			c-3.4,0-6.2-2.8-6.2-6.2s2.8-6.2,6.2-6.2c3.4,0,6.2,2.8,6.2,6.2C74.1,70.1,71.3,72.9,67.9,72.9z M83.4,63.7H80
			c-1.4-5.5-6.4-9.3-12-9.3v-6.2h15.4V63.7z"/>
	</g>
</svg>
