
<svg xmlns="http://www.w3.org/2000/svg" xmlns:xlink="http://www.w3.org/1999/xlink" viewBox="0 0 28.0942 28.1997">
 <g>
  <path d="M24.7061 26.855C25.2598 27.4219 26.209 27.4219 26.7363 26.855C27.29 26.2749 27.2769 25.3784 26.7363 24.8247L14.2119 12.2476C13.6582 11.6938 12.6958 11.6938 12.1685 12.2476C11.6279 12.8276 11.6411 13.7373 12.1685 14.291ZM25.1807 25.9453L17.0464 17.7979L17.6924 17.165L25.8267 25.3125C26.064 25.5366 26.1167 25.8003 25.9058 26.0376C25.6816 26.2354 25.418 26.1958 25.1807 25.9453Z" />
  <path d="M15.2007 22.8867C15.2007 22.2539 14.6733 21.7266 14.0405 21.7266C13.4209 21.7266 12.8936 22.2539 12.8936 22.8867L12.8936 26.9473C12.8936 27.5669 13.4209 28.0942 14.0405 28.0942C14.6733 28.0942 15.2007 27.5669 15.2007 26.9473Z" />
  <path d="M4.13965 22.3066C3.70459 22.7417 3.70459 23.4932 4.12646 23.9282C4.56152 24.3633 5.31299 24.3765 5.76123 23.9414L8.63525 21.0674C9.07031 20.6323 9.07031 19.894 8.63525 19.459C8.21338 19.0107 7.44873 19.0107 7.01367 19.459Z" />
  <path d="M1.14697 12.8936C0.527344 12.8936 0 13.4209 0 14.0405C0 14.6602 0.527344 15.1875 1.14697 15.1875L5.23389 15.1875C5.85352 15.1875 6.38086 14.6602 6.38086 14.0405C6.38086 13.4209 5.85352 12.8936 5.23389 12.8936Z" />
  <path d="M7.01367 8.64844C7.44873 9.0835 8.18701 9.0835 8.63525 8.64844C9.07031 8.2002 9.07031 7.46191 8.63525 7.02686L5.77441 4.15283C5.33936 3.71777 4.60107 3.70459 4.15283 4.13965C3.71777 4.57471 3.71777 5.31299 4.15283 5.76123Z" />
  <path d="M15.2007 1.14697C15.2007 0.527344 14.6733 0 14.0405 0C13.4209 0 12.8936 0.527344 12.8936 1.14697L12.8936 5.20752C12.8936 5.84033 13.4209 6.36768 14.0405 6.36768C14.6733 6.36768 15.2007 5.84033 15.2007 5.20752Z" />
  <path d="M19.4458 7.02686C18.9976 7.46191 18.9976 8.2002 19.4458 8.64844C19.8809 9.0835 20.6323 9.0835 21.0806 8.64844L23.9414 5.77441C24.3896 5.32617 24.3896 4.58789 23.9414 4.13965C23.5063 3.70459 22.7681 3.70459 22.333 4.13965Z" />
  <path d="M26.9341 15.1875C27.5669 15.1875 28.0942 14.6602 28.0942 14.0405C28.0942 13.4209 27.5669 12.8936 26.9341 12.8936L22.8735 12.8936C22.2539 12.8936 21.7266 13.4209 21.7266 14.0405C21.7266 14.6602 22.2539 15.1875 22.8735 15.1875Z" />
 </g>
</svg>
