
<svg xmlns="http://www.w3.org/2000/svg" xmlns:xlink="http://www.w3.org/1999/xlink" viewBox="0 0 37.6063 29.1175">
 <g>
  <rect height="29.1175" opacity="0" width="37.6063" x="0" y="0"/>
  <path d="M1.65314 21.3947L6.77814 26.3478C8.85626 28.3478 11.3719 28.3947 13.3563 26.4103L14.8875 24.8634L2.96564 13.1915L1.46564 14.6915C-0.518738 16.6759-0.518738 19.3009 1.65314 21.3947ZM4.43439 11.7228L16.3563 23.4103L27.1063 12.6447C28.4188 11.3322 28.4031 9.5353 27.0594 8.2228L19.6531 0.988422C18.325-0.308453 16.5438-0.339703 15.2313 0.957172Z" fill="#ff3b30"/>
  <path d="M15.5125 27.2228L24.2156 27.2228C24.9031 27.2228 25.4656 26.6603 25.4656 25.9728C25.4656 25.2853 24.9031 24.7072 24.2156 24.7072L18.0438 24.7072ZM28.8719 27.2228L36.3563 27.2228C37.0438 27.2228 37.6063 26.6603 37.6063 25.9728C37.6063 25.2853 37.0438 24.7072 36.3563 24.7072L28.8719 24.7072C28.1844 24.7072 27.6219 25.2853 27.6219 25.9728C27.6219 26.6603 28.1844 27.2228 28.8719 27.2228Z" fill="#ff3b30" fill-opacity="0.5"/>
 </g>
</svg>
