<svg xmlns="http://www.w3.org/2000/svg" xmlns:xlink="http://www.w3.org/1999/xlink" viewBox="0 0 32.7344 34.2344">
 <g>
  <path d="M19.5625 34.2344C20.6875 34.2344 21.4844 33.2656 22.0625 31.7656L32.2969 5.03125C32.5781 4.3125 32.7344 3.67188 32.7344 3.14062C32.7344 2.125 32.1094 1.5 31.0938 1.5C30.5625 1.5 29.9219 1.65625 29.2031 1.9375L2.32812 12.2344C1.01562 12.7344 0 13.5312 0 14.6719C0 16.1094 1.09375 16.5938 2.59375 17.0469L11.0312 19.6094C12.0312 19.9219 12.5938 19.8906 13.2656 19.2656L30.4062 3.25C30.6094 3.0625 30.8438 3.09375 31 3.23438C31.1562 3.39062 31.1719 3.625 30.9844 3.82812L15.0312 21.0312C14.4219 21.6719 14.375 22.2031 14.6719 23.25L17.1562 31.5C17.625 33.0781 18.1094 34.2344 19.5625 34.2344Z" fill="#007aff"/>
 </g>
</svg>
