<svg xmlns="http://www.w3.org/2000/svg" xmlns:xlink="http://www.w3.org/1999/xlink" width="333.747" height="42.504" viewBox="0 0 333.747 42.504">
  <defs>
    <style>
      .cls-1 {
        clip-path: url(#clip-path);
      }
    </style>
    <clipPath id="clip-path">
      <rect id="사각형_38" data-name="사각형 38" width="333.747" height="42.504"/>
    </clipPath>
  </defs>
  <g id="그룹_118" data-name="그룹 118" transform="translate(0 0)">
    <path id="패스_1" data-name="패스 1" d="M381.515,1.235V9.242H364.373v7.915h16.505v7.365H364.373v7.916h17.142v8.008h-24.8V1.235Z" transform="translate(-106.349 -0.368)"/>
    <g id="그룹_31" data-name="그룹 31" transform="translate(0 0)">
      <g id="그룹_30" data-name="그룹 30" class="cls-1">
        <path id="패스_2" data-name="패스 2" d="M13.779,40.67a17.154,17.154,0,0,1-4.985-.728A18.426,18.426,0,0,1,4.258,37.87h.056A17.064,17.064,0,0,1,1.624,35.8Q.449,34.677,0,34.174L5.825,28.8A7.983,7.983,0,0,0,7.085,30a15.38,15.38,0,0,0,1.989,1.344,14.759,14.759,0,0,0,2.353,1.092,6.836,6.836,0,0,0,2.352.448,8.3,8.3,0,0,0,1.906-.225,5.865,5.865,0,0,0,1.736-.7A3.941,3.941,0,0,0,18.71,30.7a3.559,3.559,0,0,0,.5-1.96,1.982,1.982,0,0,0-.309-.981,4.513,4.513,0,0,0-1.063-1.147,12.588,12.588,0,0,0-2.1-1.317,34.381,34.381,0,0,0-3.362-1.484A43.776,43.776,0,0,1,8.01,21.879a15.15,15.15,0,0,1-3.5-2.438,10,10,0,0,1-2.3-3.193A9.95,9.95,0,0,1,1.4,12.1a11.35,11.35,0,0,1,.9-4.509A10.569,10.569,0,0,1,4.846,3.953,11.809,11.809,0,0,1,8.823,1.544a14.664,14.664,0,0,1,8.346-.476A25.863,25.863,0,0,1,20.5,2.076a22.034,22.034,0,0,1,3.052,1.43,14.268,14.268,0,0,1,2.381,1.652l-4.816,6.05q-1.068-.727-2.186-1.346A17.618,17.618,0,0,0,16.75,8.91a7.331,7.331,0,0,0-2.523-.448,6.306,6.306,0,0,0-3.668.924,3.056,3.056,0,0,0-1.317,2.661,2.347,2.347,0,0,0,.477,1.43,4.982,4.982,0,0,0,1.289,1.176,11.431,11.431,0,0,0,1.875.979q1.065.452,2.241.841a41.351,41.351,0,0,1,5.656,2.605,15.9,15.9,0,0,1,3.7,2.8,8.822,8.822,0,0,1,1.987,3.193,11.289,11.289,0,0,1,.59,3.725,10.948,10.948,0,0,1-1.009,4.648,11.582,11.582,0,0,1-2.773,3.782,13.1,13.1,0,0,1-4.2,2.52,14.793,14.793,0,0,1-5.293.924" transform="translate(0 -0.202)"/>
        <path id="패스_3" data-name="패스 3" d="M98.933,9.021H88.178V40.445H80.392V9.021H69.525V1.235H98.933Z" transform="translate(-20.728 -0.368)"/>
        <rect id="사각형_37" data-name="사각형 37" width="7.731" height="39.21" transform="translate(102.912 0.239)"/>
        <path id="패스_4" data-name="패스 4" d="M285.615,27.842v12.6h-7.73V1.235h7.73V16.079L298.946,1.235h10.476L293.066,19.553l17.476,20.892H300.4L287.857,25.322" transform="translate(-82.847 -0.368)"/>
        <path id="패스_5" data-name="패스 5" d="M461.668,40.445h-9.524L441.5,25.49h-4.7V40.445h-7.73V1.235h15.851a11.518,11.518,0,0,1,4.65.952A12.368,12.368,0,0,1,453.4,4.793a12.758,12.758,0,0,1,2.633,3.836,11.374,11.374,0,0,1,.981,4.706,11.949,11.949,0,0,1-1.906,6.637,11.537,11.537,0,0,1-4.985,4.342Zm-18.2-22.685a6.209,6.209,0,0,0,4.369-1.317,4.138,4.138,0,0,0,1.4-3.109,3.964,3.964,0,0,0-1.4-3.052,6.391,6.391,0,0,0-4.369-1.262H436.8v8.74Z" transform="translate(-127.92 -0.368)"/>
        <path id="패스_6" data-name="패스 6" d="M211.761,50.924a20.823,20.823,0,0,1-20.8-20.8V28.241l32.883,18.54-1.475,1a18.586,18.586,0,0,1-10.609,3.146" transform="translate(-56.932 -8.42)"/>
        <path id="패스_7" data-name="패스 7" d="M235.246,28.066a5.193,5.193,0,0,0-5.019,3.69,8.345,8.345,0,0,1-1.681,3.167l-.861,1.007,10.566,6.1.57-.872a22.6,22.6,0,0,0,3.708-11.991v-1.1Zm2.277,11-6.517-3.762a10.69,10.69,0,0,0,1.338-2.946,2.983,2.983,0,0,1,2.9-2.092h5.043a20.957,20.957,0,0,1-2.766,8.8" transform="translate(-67.881 -8.368)"/>
        <path id="패스_8" data-name="패스 8" d="M222.722,2.786a20.8,20.8,0,0,0-29.494,9.754l-.391.9L203.856,19.8l.392-1.348a8.406,8.406,0,0,1,12.273-4.934l.954.552,6.2-10.736Zm-6.08,8.327a10.609,10.609,0,0,0-14.035,5.426l-6.947-4.012a18.607,18.607,0,0,1,24.991-8.359Z" transform="translate(-57.491 0)"/>
      </g>
    </g>
  </g>
</svg>
